<?xml version="1.0" encoding="utf-8"?>
<!-- Generator: Adobe Illustrator 27.0.0, SVG Export Plug-In . SVG Version: 6.00 Build 0)  -->
<svg version="1.1" id="Layer_1" xmlns="http://www.w3.org/2000/svg" xmlns:xlink="http://www.w3.org/1999/xlink" x="0px" y="0px"
	 viewBox="0 0 512 512" style="enable-background:new 0 0 512 512;" xml:space="preserve">
<style type="text/css">
	.st0{opacity:0.2;fill:#CEB15A;stroke:#000000;stroke-width:1.0099;stroke-miterlimit:10;}
	.st1{fill:#CEB15A;}
</style>
<path class="st0" d="M436.1,420H75.8c-27.1,0-49-21.9-49-49V125c0-27.1,21.9-49,49-49h360.3c27.1,0,49,21.9,49,49v246
	C485.1,398.1,463.2,420,436.1,420z"/>
<g transform="translate(0.000000,512.000000) scale(0.100000,-0.100000)">
	<path class="st1" d="M1317,5110c-111-28-209-110-260-218c-28-60-32-77-32-157c1-127,25-185,121-285c41-42,74-80,74-84
		c0-3-116-6-258-6c-284,0-330-6-432-61c-113-60-216-195-244-319c-22-97-24-786-2-829c15-28,53-51,87-51c28,0,75,26,85,47
		c5,10,11,194,14,408l5,390l27,51c15,28,48,70,73,92c80,70,92,72,499,72h361l624-624l623-623l2-119c2-99,7-133,29-201
		c48-144,157-280,307-383c213-145,481-202,847-179c167,11,202,21,222,66c22,49,16,68-57,164c-18,23-40,68-49,98c-16,56-16,63,3,411
		c11,215-40,356-180,495c-136,135-289,198-476,194l-95-2l-350,352l-350,351h936c1047,0,988,4,1074-72c25-22,58-64,73-92l27-51
		l3-1072l2-1073H2560H470v260c0,283-4,305-55,328c-33,15-57,15-90,0c-55-25-55-27-55-536c0-276,4-492,10-523c38-199,209-366,410-398
		c41-7,310-11,718-11h652V762V604l-72-12c-104-18-188-62-267-141c-73-71-110-137-136-236c-28-108-16-174,36-201
		c42-21,1836-21,1878,0c53,28,64,98,33,217c-48,182-210,328-400,361l-72,12v158v158h653c391,0,678,4,717,10c193,30,354,180,405,376
		c22,87,22,2576,0,2672c-41,173-177,314-354,366c-49,14-172,16-1100,16H2336l-346,344c-305,303-353,347-411,375c-54,26-82,33-145,37
		C1390,5118,1338,5115,1317,5110z M1485,4901c27-13,208-188,553-533l512-513l-133-133l-132-132l-517,518c-357,357-522,528-533,554
		c-38,93,5,195,100,239C1386,4925,1434,4925,1485,4901z M2850,3555l155-155l-133-132l-132-133l-157,157l-158,158l130,130
		c71,71,132,130,135,130S2765,3640,2850,3555z M3449,3249c62-14,147-57,194-99c37-33,39-38,27-60c-39-74-125-146-208-175
		c-24-8-82-19-130-25s-118-22-157-35c-81-29-191-101-240-157l-34-40l-8,28c-4,16-8,72-7,124c1,113,22,178,88,267
		C3077,3218,3275,3289,3449,3249z M3781,2677c-6-54-11-142-11-195c0-86,6-126,36-228c5-18,0-22-34-28c-58-9-271,11-369,34
		c-111,26-222,78-310,147c-40,30-73,58-73,63c0,14,57,86,100,124c59,53,134,83,237,96c48,5,119,20,157,32c74,23,191,95,241,148
		l30,31l3-63C3790,2803,3786,2731,3781,2677z M4650,1492c0-186-44-273-167-334l-68-33H2560H705l-56,26c-66,31-120,84-151,148
		c-19,39-23,66-26,174l-4,127h2091h2091V1492z M2860,760V600h-300h-300v160v160h300h300V760z M3150,381c28-11,67-32,87-47
		c32-24,93-107,93-126c0-4-346-8-770-8c-423,0-770,4-770,8c0,20,61,102,95,128c83,63,85,63,677,64C3069,400,3103,399,3150,381z"/>
	<path class="st1" d="M2507,1449c-51-30-58-116-11-160c40-37,98-33,136,10c26,29,30,39,25,75c-7,53-44,86-95,86
		C2542,1460,2517,1455,2507,1449z"/>
	<path class="st1" d="M321,2836c-87-48-50-186,49-186c51,0,100,49,100,99C470,2824,387,2873,321,2836z"/>
</g>
</svg>
