<?xml version="1.0" encoding="utf-8"?>
<!-- Generator: Adobe Illustrator 27.0.0, SVG Export Plug-In . SVG Version: 6.00 Build 0)  -->
<svg version="1.1" id="Layer_1" xmlns="http://www.w3.org/2000/svg" xmlns:xlink="http://www.w3.org/1999/xlink" x="0px" y="0px"
	 viewBox="0 0 512 512" style="enable-background:new 0 0 512 512;" xml:space="preserve">
<style type="text/css">
	.st0{opacity:0.2;fill:#CEB15A;stroke:#000000;stroke-width:1.0149;stroke-miterlimit:10;}
	.st1{fill:#CEB15A;stroke:#CEB15A;stroke-width:0.1;stroke-miterlimit:1;}
</style>
<path class="st0" d="M109.5,512c-33.7,0-61-27.3-61-61V200C48.5,89.5,138,0,248.5,0h154.6c33.7,0,61,27.3,61,61v257
	c0,0-0.1,73.8-49,140.2c-35.8,48.5-82.7,54-82.7,54L109.5,512"/>
<g transform="translate(0.000000,512.000000) scale(0.100000,-0.100000)">
	<path class="st1" d="M1675,5105c-96-21-168-52-241-104c-98-70-801-778-853-860c-23-36-54-101-69-145l-27-81V2220V525l27-81
		C579,249,729,98,924,32l81-27l550-3l550-3l45,23c48,25,90,88,90,138c0,42-42,113-80,135c-34,19-56,20-580,25c-533,5-546,5-592,27
		c-60,27-134,101-161,161l-22,47v1660c0,1601,1,1662,19,1710c16,43,70,102,400,433c308,309,392,388,436,410l55,27h1185h1185l47-22
		c60-27,134-101,161-161c22-46,22-55,27-752c5-685,6-706,25-740c22-38,93-80,135-80c50,0,113,42,138,90l23,45l-3,710l-3,710l-28,82
		c-66,195-216,344-412,411l-80,27l-1190,2C1964,5118,1723,5116,1675,5105z"/>
	<path class="st1" d="M1690,3658c-48-25-90-89-90-138s42-113,90-137l44-23h826h826l44,23c48,24,90,88,90,137s-42,113-90,138l-44,22
		h-826h-826L1690,3658z"/>
	<path class="st1" d="M1690,2858c-48-25-90-89-90-138s42-113,90-137c44-23,48-23,470-23s426,0,470,23c48,24,90,88,90,137
		s-42,113-90,138c-44,22-48,22-470,22S1734,2880,1690,2858z"/>
	<path class="st1" d="M4110,2614c-36-8-103-32-150-55l-85-40l-636-637c-417-418-646-654-665-686c-71-124-102-274-84-403
		c26-193,81-282,317-513c151-149,177-170,253-207c161-79,319-91,486-39c136,43,182,80,540,439c308,308,334,337,368,407
		c71,146,64,328-16,459c-130,210-395,285-627,175c-68-32-96-56-328-287c-143-141-264-269-275-291c-51-100,26-226,139-226
		c24,0,54,5,66,11s135,123,272,260c138,136,263,253,278,258c130,49,255-63,217-192c-10-35-62-92-318-350c-334-335-366-360-483-373
		c-64-7-150,13-208,51c-20,12-100,88-178,167c-169,171-187,202-188,323c0,140-24,111,667,801c568,567,617,613,663,627
		c79,24,117,28,174,17c89-17,121-39,279-194c187-184,207-218,207-346c0-97-17-142-84-223c-47-56-59-102-41-160
		c24-82,108-129,191-107c79,22,186,164,229,305c48,158,34,318-42,475c-38,79-55,99-227,271s-193,189-271,228
		C4413,2626,4256,2646,4110,2614z"/>
</g>
</svg>
